<?xml version="1.0" encoding="utf-8"?>
<!-- Generator: Adobe Illustrator 19.1.0, SVG Export Plug-In . SVG Version: 6.00 Build 0)  -->
<svg width="32" height="32" xmlns="http://www.w3.org/2000/svg">
 <g stroke="null" id="svg_1">
   <path stroke="null" id="svg_2" d="m8.210418,28.998432c-0.416555,0 -0.846996,-0.097196 -1.23578,-0.305474c-0.846996,-0.444326 -1.374632,-1.332977 -1.374632,-2.291054l0,-10.399995c0,-1.444058 1.166355,-2.596527 2.596527,-2.596527s2.596527,1.166355 2.596527,2.596527l0,5.540184l8.317219,-5.540184l-12.343919,-8.233908c-1.194125,-0.791455 -1.513484,-2.41602 -0.722029,-3.610145c0.791455,-1.194125 2.41602,-1.513484 3.610145,-0.722029l15.59305,10.399995c0.722029,0.485981 1.152469,1.291321 1.152469,2.166087s-0.43044,1.680106 -1.152469,2.166087l-15.59305,10.38611c-0.444326,0.291589 -0.944192,0.444326 -1.444058,0.444326z"/>
  </g>
</svg>
